<?xml version="1.0" encoding="utf-8"?>
<!-- Generator: Adobe Illustrator 21.0.0, SVG Export Plug-In . SVG Version: 6.00 Build 0)  -->
<svg version="1.1" id="Layer_1" xmlns="http://www.w3.org/2000/svg" xmlns:xlink="http://www.w3.org/1999/xlink" x="0px" y="0px"
	 viewBox="0 0 52.2 44.3" style="enable-background:new 0 0 52.2 44.3;" xml:space="preserve">
<style type="text/css">
	.st0{fill:#3E80FF;}
</style>
<g>
	<path class="st0" d="M23.6,0.8c-11.7,0-21.2,9.6-21.2,21.4s9.5,21.4,21.2,21.4S44.8,34,44.8,22.2S35.3,0.8,23.6,0.8z M34.6,1.6
		c7.2,4,12.1,11.7,12.1,20.5s-4.9,16.6-12.1,20.5c9-2.7,15.2-11,15.2-20.5C49.8,12.7,43.6,4.3,34.6,1.6z M23.9,5.7
		c1.2,0,2.1,0.9,2,2.1v0.6c2.1,0.3,4,1,5.7,2c0.8,0.4,1.4,1.2,1.4,2.4c0,1.5-1.2,2.7-2.7,2.7c-0.5,0-1-0.1-1.4-0.4
		c-1.1-0.6-2.2-1.1-3.3-1.4l-0.1,6.1c6,1.7,8.6,4.2,8.5,8.7c0,4.5-3.5,7.3-8.5,7.8v2.1c0,1.2-0.9,2.1-2.1,2.1s-2.1-0.9-2-2.1v-2.2
		c-2.8-0.4-5.5-1.4-7.8-2.9c-0.8-0.5-1.3-1.3-1.3-2.4c0-1.6,1.2-2.7,2.8-2.7c0.5,0,1.1,0.2,1.5,0.5c1.7,1.1,3.2,1.9,5.1,2.3l0.1-6.4
		c-5.7-1.6-8.5-3.9-8.4-8.6c0-4.4,3.4-7.3,8.4-7.8V7.7C21.8,6.6,22.7,5.7,23.9,5.7z M21.9,13.3c-1.9,0.3-2.8,1.2-2.8,2.5
		c0,1.2,0.5,2.1,2.7,2.9L21.9,13.3z M25.5,25.8l-0.1,5.6c1.9-0.3,2.8-1.1,2.8-2.6C28.4,27.4,27.7,26.6,25.5,25.8z"/>
</g>
</svg>
