<?xml version="1.0" encoding="utf-8"?>
<!-- Generator: Adobe Illustrator 21.0.0, SVG Export Plug-In . SVG Version: 6.00 Build 0)  -->
<svg version="1.1" id="Layer_1" xmlns="http://www.w3.org/2000/svg" xmlns:xlink="http://www.w3.org/1999/xlink" x="0px" y="0px"
	 viewBox="0 0 104 17" style="enable-background:new 0 0 104 17;" xml:space="preserve">
<style type="text/css">
	.st0{fill:url(#SVGID_1_);}
</style>
<g>
	
		<linearGradient id="SVGID_1_" gradientUnits="userSpaceOnUse" x1="0.516" y1="9.612" x2="103.6213" y2="9.612" gradientTransform="matrix(1 0 0 -1 0 18)">
		<stop  offset="0" style="stop-color:#3E80FF"/>
		<stop  offset="1" style="stop-color:#24126A"/>
	</linearGradient>
	<path class="st0" d="M1.2,11.9c6.9,4.2,15.3,5.4,23,2.7c10-3.5,17-10.6,28.4-8.4c8.9,1.7,16.9,5.9,26.1,5.8
		C87.5,11.8,96,8.8,103,3.6c1.5-1.1,0-3.7-1.5-2.6C94,6.6,84.9,9.5,75.6,8.9c-8.8-0.6-16.7-5.1-25.4-6.1C42.9,1.9,37.1,4.6,30.9,8
		c-9.3,5.1-18.6,7.1-28.2,1.3C1.1,8.3-0.4,10.9,1.2,11.9L1.2,11.9z"/>
</g>
</svg>
