<?xml version="1.0" encoding="utf-8"?>
<!-- Generator: Adobe Illustrator 21.0.0, SVG Export Plug-In . SVG Version: 6.00 Build 0)  -->
<svg version="1.1" id="Layer_1" xmlns="http://www.w3.org/2000/svg" xmlns:xlink="http://www.w3.org/1999/xlink" x="0px" y="0px"
	 viewBox="0 0 114.3 21.1" style="enable-background:new 0 0 114.3 21.1;" xml:space="preserve">
<style type="text/css">
	.st0{fill:#3E80FF;}
	.st1{fill:#24126A;}
</style>
<g>
	<path class="st0" d="M10.8,0.3C5.2,0.3,0.7,4.9,0.7,10.6c0,5.6,4.5,10.2,10.1,10.2s10.1-4.6,10.1-10.2C20.9,4.9,16.4,0.3,10.8,0.3z
		 M16.1,0.8c3.4,1.9,5.8,5.6,5.8,9.8s-2.3,7.9-5.8,9.8c4.3-1.3,7.3-5.3,7.3-9.8C23.3,6,20.4,2,16.1,0.8z M11,2.7c0.5,0,1,0.5,1,1V4
		c1,0.2,1.9,0.5,2.7,0.9c0.4,0.2,0.7,0.6,0.7,1.2c0,0.7-0.6,1.3-1.3,1.3c-0.2,0-0.5-0.1-0.7-0.2c-0.5-0.3-1.1-0.5-1.6-0.7v2.9
		c2.9,0.8,4.1,2,4.1,4.2c0,2.1-1.7,3.5-4.1,3.7v1c0,0.6-0.4,1-1,1c-0.5,0-1-0.5-1-1v-1c-1.3-0.2-2.6-0.7-3.7-1.4
		c-0.4-0.3-0.6-0.6-0.6-1.2c0-0.7,0.6-1.3,1.3-1.3c0.2,0,0.5,0.1,0.7,0.3c0.8,0.5,1.5,0.9,2.4,1.1v-3C7.2,11,5.8,10,5.9,7.7
		c0-2.1,1.6-3.5,4-3.7V3.8C10,3.2,10.4,2.7,11,2.7z M10,6.3C9.1,6.5,8.7,6.9,8.7,7.5S9,8.5,10,8.9V6.3z M11.8,12.3V15
		c0.9-0.1,1.4-0.5,1.4-1.2C13.1,13.1,12.8,12.6,11.8,12.3z"/>
	<g>
		<path class="st1" d="M34.5,15.5c-0.8,0-1.6-0.1-2.3-0.4c-0.7-0.3-1.4-0.7-1.9-1.2c-0.6-0.5-1-1.1-1.3-1.8s-0.5-1.4-0.5-2.2
			s0.2-1.5,0.5-2.2s0.7-1.3,1.3-1.8c0.6-0.5,1.2-0.9,1.9-1.2c0.7-0.3,1.5-0.4,2.3-0.4c0.7,0,1.3,0.1,1.9,0.3c0.6,0,1.2,0.2,1.6,0.5
			L37.1,7c-0.3-0.2-0.7-0.4-1.1-0.6c-0.4-0.1-0.9-0.2-1.3-0.2c-0.5,0-1.1,0.1-1.5,0.3c-0.5,0.2-0.9,0.4-1.2,0.8S31.3,8,31.1,8.4
			c-0.2,0.4-0.3,0.9-0.3,1.4s0.1,1,0.3,1.4c0.2,0.4,0.5,0.8,0.8,1.1c0.3,0.3,0.8,0.6,1.2,0.8c0.5,0.2,1,0.3,1.5,0.3s0.9-0.1,1.3-0.2
			c0.4-0.1,0.8-0.3,1.1-0.6l0.9,1.8c-0.4,0.3-0.9,0.6-1.5,0.7C35.8,15.4,35.2,15.5,34.5,15.5z"/>
		<path class="st1" d="M39.5,15.3V8.5h2.1v1c0.3-0.4,0.6-0.7,0.9-0.9c0.4-0.2,0.8-0.3,1.2-0.3c0.2,0,0.5,0,0.7,0.1
			c0.3,0.1,0.5,0.2,0.6,0.3l-0.9,1.7c-0.2-0.1-0.3-0.2-0.5-0.2c-0.2-0.1-0.4-0.1-0.6-0.1c-0.3,0-0.5,0.1-0.8,0.2
			c-0.2,0.1-0.4,0.3-0.6,0.5c-0.1,0.2-0.2,0.5-0.2,0.7v3.8H39.5z"/>
		<path class="st1" d="M45.9,18.8l2.2-4.3l-3.3-6h2.4l2.1,4l1.8-4h2.4l-5.2,10.3H45.9z"/>
		<path class="st1" d="M54.6,18.8V8.5h2.1v0.8c0.3-0.3,0.6-0.6,1-0.8s0.9-0.3,1.3-0.3c0.7,0,1.2,0.2,1.8,0.5C61.3,9,61.7,9.4,62,10
			c0.3,0.5,0.4,1.2,0.4,1.9s-0.1,1.3-0.4,1.9c-0.3,0.6-0.7,1-1.2,1.3s-1.1,0.5-1.7,0.5c-0.5,0-0.9-0.1-1.3-0.3
			c-0.4-0.2-0.8-0.5-1.1-0.8v4.4h-2.1V18.8z M58.5,13.8c0.4,0,0.7-0.1,0.9-0.2c0.3-0.2,0.5-0.4,0.6-0.7s0.2-0.6,0.2-1
			s-0.1-0.7-0.2-1c-0.2-0.3-0.4-0.5-0.6-0.7S58.8,10,58.5,10c-0.4,0-0.7,0.1-0.9,0.2c-0.3,0.2-0.5,0.4-0.7,0.7s-0.2,0.6-0.2,1
			s0.1,0.7,0.2,1c0.2,0.3,0.4,0.5,0.7,0.7C57.8,13.7,58.1,13.8,58.5,13.8z"/>
		<path class="st1" d="M66.6,15.5c-0.7,0-1.2-0.2-1.6-0.7c-0.4-0.4-0.6-1-0.6-1.8v-3h-0.9V8.5h0.9V5.9h2.1v2.6H68V10h-1.5v2.9
			c0,0.3,0.1,0.5,0.2,0.6s0.3,0.2,0.4,0.2c0.2,0,0.4-0.1,0.6-0.2l0.5,1.6c-0.2,0.1-0.5,0.2-0.8,0.3C67.2,15.5,66.9,15.5,66.6,15.5z"
			/>
		<path class="st1" d="M73.4,15.5c-0.8,0-1.4-0.2-2-0.5s-1.1-0.7-1.4-1.3c-0.4-0.5-0.5-1.2-0.5-1.9s0.2-1.3,0.5-1.9
			c0.4-0.5,0.8-1,1.4-1.3s1.3-0.5,2-0.5c0.8,0,1.4,0.2,2,0.5s1.1,0.7,1.4,1.3c0.4,0.5,0.5,1.2,0.5,1.9s-0.2,1.3-0.5,1.9
			c-0.4,0.5-0.8,1-1.4,1.3C74.9,15.4,74.2,15.5,73.4,15.5z M73.4,13.8c0.3,0,0.7-0.1,0.9-0.2c0.3-0.2,0.5-0.4,0.7-0.7s0.2-0.6,0.2-1
			s-0.1-0.7-0.2-1c-0.2-0.3-0.4-0.5-0.7-0.7C74,10,73.7,10,73.4,10c-0.4,0-0.7,0.1-1,0.2s-0.5,0.4-0.7,0.7s-0.2,0.6-0.2,1
			s0.1,0.7,0.2,1c0.2,0.3,0.4,0.5,0.7,0.7C72.8,13.7,73.1,13.8,73.4,13.8z"/>
		<path class="st1" d="M79.5,15.3v-11h2.2v9.1h4v1.9H79.5z"/>
		<path class="st1" d="M90,15.5c-0.6,0-1.2-0.2-1.7-0.5s-0.9-0.7-1.2-1.3c-0.3-0.6-0.5-1.2-0.5-1.9s0.1-1.3,0.4-1.8s0.7-1,1.2-1.3
			s1.1-0.5,1.8-0.5c0.5,0,0.9,0.1,1.4,0.3s0.8,0.4,1,0.8V8.5h2.1v6.8h-2.1v-0.9c-0.3,0.4-0.7,0.6-1.1,0.8S90.5,15.5,90,15.5z
			 M90.6,13.8c0.4,0,0.7-0.1,0.9-0.2c0.3-0.2,0.5-0.4,0.6-0.7c0.2-0.3,0.2-0.6,0.2-1s-0.1-0.7-0.2-1c-0.2-0.3-0.4-0.5-0.6-0.7
			C91.3,10.1,91,10,90.6,10s-0.7,0.1-0.9,0.2c-0.3,0.2-0.5,0.4-0.7,0.7s-0.2,0.6-0.2,1s0.1,0.7,0.2,1c0.2,0.3,0.4,0.5,0.7,0.7
			C90,13.7,90.3,13.8,90.6,13.8z"/>
		<path class="st1" d="M96.9,15.3V8.5H99v0.8c0.3-0.3,0.6-0.5,1-0.7s0.8-0.3,1.3-0.3s1,0.1,1.4,0.3s0.7,0.5,0.9,1
			c0.2,0.4,0.3,0.9,0.3,1.4v4.3h-2.1v-3.9c0-0.5-0.1-0.9-0.4-1.1c-0.3-0.3-0.6-0.4-1.1-0.4c-0.3,0-0.6,0.1-0.8,0.2
			c-0.2,0.1-0.4,0.3-0.5,0.5s-0.2,0.5-0.2,0.7v4.1L96.9,15.3L96.9,15.3z"/>
		<path class="st1" d="M109,15.5c-0.6,0-1.2-0.2-1.7-0.5s-0.9-0.7-1.2-1.3c-0.3-0.5-0.5-1.2-0.5-1.9s0.1-1.3,0.4-1.9
			c0.3-0.5,0.7-1,1.2-1.3s1.1-0.5,1.8-0.5c0.5,0,0.9,0.1,1.3,0.3s0.8,0.4,1,0.8V3.8h2.1v11.5h-2.1v-0.9c-0.3,0.4-0.7,0.6-1.1,0.8
			C109.9,15.4,109.5,15.5,109,15.5z M109.6,13.8c0.4,0,0.7-0.1,1-0.2c0.3-0.2,0.5-0.4,0.7-0.7s0.2-0.6,0.2-1s-0.1-0.7-0.2-1
			c-0.2-0.3-0.4-0.5-0.7-0.7c-0.3-0.2-0.6-0.2-0.9-0.2c-0.4,0-0.7,0.1-0.9,0.2c-0.3,0.2-0.5,0.4-0.7,0.7s-0.2,0.6-0.2,1
			s0.1,0.7,0.2,1s0.4,0.5,0.6,0.7C109,13.7,109.3,13.8,109.6,13.8z"/>
	</g>
</g>
</svg>
